<svg width="80" height="80" viewBox="0 0 80 80" fill="none" xmlns="http://www.w3.org/2000/svg">
<g clip-path="url(#clip0)">
<path d="M33.7275 36.8715L62.6126 36.8207C62.6643 36.8207 62.7138 36.8004 62.7503 36.7644C62.7868 36.7284 62.8073 36.6796 62.8073 36.6286C62.8073 36.5777 62.7868 36.5288 62.7503 36.4928C62.7138 36.4568 62.6643 36.4366 62.6126 36.4366L33.7275 36.4874C33.6759 36.4874 33.6264 36.5077 33.5899 36.5437C33.5534 36.5797 33.5329 36.6285 33.5329 36.6795C33.5329 36.7304 33.5534 36.7793 33.5899 36.8153C33.6264 36.8513 33.6759 36.8715 33.7275 36.8715Z" fill="#3F3D56"/>
<path d="M33.296 39.5601C34.8013 39.5601 36.0215 38.3564 36.0215 36.8715C36.0215 35.3867 34.8013 34.183 33.296 34.183C31.7908 34.183 30.5705 35.3867 30.5705 36.8715C30.5705 38.3564 31.7908 39.5601 33.296 39.5601Z" fill="#3F3D56"/>
<path d="M61.3179 36.8579C57.6229 36.8579 54.0108 35.777 50.9386 33.752C47.8663 31.727 45.4718 28.8488 44.0578 25.4814C42.6437 22.1139 42.2738 18.4085 42.9946 14.8336C43.7155 11.2587 45.4948 7.975 48.1075 5.39766C50.7203 2.82033 54.0492 1.06514 57.6731 0.354054C61.2971 -0.357031 65.0535 0.00792439 68.4672 1.40277C71.8809 2.79761 74.7987 5.1597 76.8515 8.19033C78.9044 11.221 80 14.784 80 18.4289C79.9944 23.3149 78.0244 27.9991 74.522 31.454C71.0196 34.9089 66.271 36.8523 61.3179 36.8579ZM61.3179 1.27091C57.8777 1.27091 54.5148 2.27721 51.6544 4.16255C48.794 6.0479 46.5646 8.72761 45.2481 11.8628C43.9316 14.998 43.5872 18.4479 44.2583 21.7763C44.9294 25.1046 46.586 28.1618 49.0186 30.5614C51.4512 32.961 54.5504 34.5952 57.9245 35.2572C61.2986 35.9193 64.7959 35.5795 67.9742 34.2808C71.1525 32.9822 73.869 30.783 75.7803 27.9614C77.6915 25.1398 78.7116 21.8224 78.7116 18.4289C78.7064 13.8799 76.8722 9.5187 73.6113 6.30207C70.3505 3.08544 65.9294 1.27607 61.3179 1.27091Z" fill="#3F3D56"/>
<path d="M69.3789 25.8131C68.6951 25.8135 68.0265 25.6139 67.4577 25.2395C66.8889 24.8652 66.4454 24.3328 66.1833 23.7098C65.9212 23.0868 65.8523 22.4011 65.9852 21.7394C66.1182 21.0777 66.447 20.4698 66.9302 19.9925C67.4134 19.5153 68.0293 19.19 68.6998 19.058C69.3704 18.9259 70.0656 18.993 70.6975 19.2507C71.3295 19.5084 71.8697 19.9452 72.25 20.5058C72.6303 21.0664 72.8335 21.7257 72.834 22.4002C72.8342 23.3046 72.4704 24.1721 71.8225 24.8121C71.1747 25.452 70.2957 25.812 69.3789 25.8131ZM61.3177 25.8131C60.4017 25.812 59.5235 25.4526 58.8758 24.8137C58.2281 24.1748 57.8637 23.3085 57.8627 22.4049V14.453C57.8627 13.5491 58.2267 12.6822 58.8747 12.043C59.5226 11.4038 60.4014 11.0447 61.3178 11.0447C62.2341 11.0447 63.1129 11.4038 63.7609 12.043C64.4088 12.6822 64.7728 13.5491 64.7728 14.453V22.4049C64.7718 23.3085 64.4074 24.1748 63.7597 24.8137C63.1119 25.4527 62.2337 25.8121 61.3177 25.8131ZM53.2589 25.8131C52.3423 25.812 51.4635 25.4523 50.8153 24.8129C50.1671 24.1736 49.8025 23.3067 49.8015 22.4024V19.2254C49.8015 18.3208 50.1658 17.4533 50.8142 16.8137C51.4626 16.1741 52.342 15.8148 53.259 15.8148C54.1759 15.8148 55.0554 16.1741 55.7038 16.8137C56.3522 17.4533 56.7164 18.3208 56.7164 19.2254V22.4024C56.7154 23.3067 56.3508 24.1736 55.7026 24.813C55.0544 25.4524 54.1756 25.812 53.2589 25.8131Z" fill="#FF6D70"/>
<path d="M5.03418 63.5646V63.8736C5.03463 64.3858 5.24109 64.8769 5.60825 65.2391C5.9754 65.6013 6.47323 65.8049 6.99246 65.8054H23.5987C24.118 65.8052 24.616 65.6016 24.9832 65.2394C25.3504 64.8771 25.5568 64.3859 25.557 63.8736V63.5646C25.558 63.1125 25.3971 62.6746 25.1026 62.3282C25.0046 62.2132 24.8938 62.1095 24.7721 62.0192H16.1588C16.0549 62.0191 15.9553 61.9784 15.8819 61.906C15.8084 61.8335 15.7671 61.7353 15.7671 61.6328H6.99247C6.47332 61.6335 5.97563 61.8373 5.60854 62.1994C5.24144 62.5615 5.0349 63.0524 5.03418 63.5646Z" fill="#3F3D56"/>
<path d="M14.1997 79.9462H16.2363V65.7286H14.1997L14.1997 79.9462Z" fill="#3F3D56"/>
<path d="M8.40317 79.8756C8.40317 80.0927 11.4893 79.9596 15.2963 79.9596C19.1033 79.9596 22.1895 80.0927 22.1895 79.8756C22.1895 79.6586 19.1033 77.9372 15.2963 77.9372C11.4893 77.9372 8.40317 79.6586 8.40317 79.8756Z" fill="#3F3D56"/>
<path d="M8.23005 63.2384L15.1796 64.3326L23.254 65.6044L26.0536 66.0449C26.3224 66.0867 26.597 66.0217 26.8172 65.8641C27.0375 65.7065 27.1854 65.4692 27.2285 65.2042L27.3555 64.4222L27.473 63.6943L27.57 63.0947C27.592 62.9606 27.5861 62.8236 27.5527 62.6918C27.5193 62.56 27.4591 62.4363 27.3758 62.3282C27.2773 62.1952 27.1463 62.0889 26.9951 62.0191H16.1587C16.0549 62.0191 15.9553 61.9784 15.8818 61.9059C15.8084 61.8335 15.7671 61.7352 15.7671 61.6328V61.3283C15.7671 61.2259 15.8084 61.1276 15.8818 61.0552C15.9553 60.9827 16.0549 60.942 16.1587 60.942H20.4169L18.4538 60.6329L12.4192 59.6825L8.89587 59.1277C8.62647 59.0856 8.35113 59.1506 8.13027 59.3085C7.90941 59.4664 7.76106 59.7043 7.71777 59.9699L7.37622 62.0779C7.33452 62.3433 7.40087 62.6142 7.5608 62.8316C7.72074 63.049 7.9613 63.1952 8.23005 63.2384Z" fill="#FF6D70"/>
<path d="M23.254 62.9449V74.7223C23.2544 74.9906 23.3626 75.2479 23.555 75.4376C23.7473 75.6274 24.0081 75.7341 24.2801 75.7345H26.4468C26.7188 75.7341 26.9796 75.6274 27.1719 75.4376C27.3643 75.2479 27.4726 74.9906 27.473 74.7223V62.9449C27.4733 62.7214 27.3977 62.5043 27.2583 62.3282C27.1551 62.1929 27.0179 62.0864 26.8604 62.0192H23.865C23.7081 62.0869 23.5716 62.1933 23.4686 62.3282C23.3294 62.5044 23.2539 62.7215 23.254 62.9449Z" fill="#FF6D70"/>
<path d="M16.7243 43.0108C16.7353 43.1159 16.7628 43.2186 16.8058 43.3153C16.871 43.463 16.9715 43.5929 17.0987 43.6939L17.1035 43.697L23.2854 48.6438L23.3762 48.7149L24.6562 49.7395L25.0431 50.0486H31.7373L31.3519 49.7395L26.0614 45.5051L22.5162 42.6678L19.7573 40.4609C19.5959 40.3312 19.3979 40.2535 19.1902 40.2384C19.1894 40.2375 19.1883 40.237 19.1871 40.2369C19.1255 40.2325 19.0636 40.2335 19.0022 40.2399C18.9102 40.2491 18.8201 40.2709 18.7343 40.3048C18.6757 40.3258 18.6199 40.3538 18.5682 40.3883C18.4708 40.4469 18.3845 40.5217 18.3129 40.6093L16.9687 42.2428L16.9484 42.269C16.8631 42.3719 16.7995 42.4905 16.761 42.6178C16.7225 42.7451 16.7101 42.8787 16.7243 43.0108Z" fill="#FF6D70"/>
<path d="M17.1034 43.6969C17.2199 43.9843 17.3893 44.2478 17.6032 44.4743L21.7187 48.8354C21.8181 48.9255 21.9347 48.9954 22.0615 49.041C22.1884 49.0866 22.3232 49.107 22.4581 49.1011C22.593 49.0952 22.7254 49.0631 22.8478 49.0067C22.9701 48.9502 23.0799 48.8704 23.1709 48.772L23.2853 48.6437L23.3354 48.5881L25.1136 46.6208L25.8781 45.774C25.9289 45.7218 25.9731 45.6636 26.0096 45.6009C26.0285 45.57 26.0457 45.5375 26.0613 45.5051C26.1255 45.3606 26.1549 45.2036 26.1475 45.0461C26.1423 44.9121 26.1098 44.7805 26.0519 44.6592C25.9941 44.5378 25.912 44.4292 25.8107 44.3398L21.0387 40.7422C20.5122 40.3439 19.8493 40.1632 19.1901 40.2384C19.1893 40.2375 19.1882 40.2369 19.187 40.2368C19.0406 40.2549 18.896 40.2849 18.7546 40.3264C18.6919 40.3435 18.6309 40.3651 18.5681 40.3883C18.1636 40.5384 17.8049 40.7885 17.5264 41.1146C17.2234 41.4658 17.0237 41.8922 16.9492 42.3475C16.8746 42.8028 16.9279 43.2695 17.1034 43.6969V43.6969Z" fill="#2F2E41"/>
<path d="M15.1492 36.6468C19.4859 36.6468 23.0015 33.1789 23.0015 28.901C23.0015 24.6231 19.4859 21.1552 15.1492 21.1552C10.8125 21.1552 7.29694 24.6231 7.29694 28.901C7.29694 33.1789 10.8125 36.6468 15.1492 36.6468Z" fill="#FF6D70"/>
<path d="M13.0584 62.1706L15.9707 62.628L16.0366 62.6389L20.4638 63.3358L23.254 63.7763L27.3555 64.4223L27.473 64.4408L28.0823 64.5366L30.8819 64.977C31.1507 65.0189 31.4253 64.9538 31.6456 64.7963C31.8658 64.6387 32.0137 64.4014 32.0569 64.1363L32.3013 62.628L32.3984 62.0284C32.3984 62.0253 32.4 62.0222 32.4 62.0191H16.1587C16.0549 62.0191 15.9553 61.9784 15.8818 61.9059C15.8084 61.8335 15.7671 61.7353 15.7671 61.6328V61.3284C15.7671 61.2259 15.8084 61.1277 15.8818 61.0552C15.9553 60.9828 16.0549 60.9421 16.1587 60.942H21.291V59.2529L20.9777 59.2035L19.4299 58.9593L13.7227 58.0614C13.4537 58.0192 13.1787 58.0841 12.9581 58.2417C12.7375 58.3993 12.5893 58.6368 12.5461 58.9021L12.4192 59.6825L12.2046 61.0116C12.1625 61.2769 12.2288 61.5478 12.3888 61.7651C12.5488 61.9823 12.7896 62.1281 13.0584 62.1706Z" fill="#FF6D70"/>
<path d="M4.46222 55.3276C4.46222 61.6421 5.11242 65.419 15.1388 64.3372C15.1529 64.3357 15.1655 64.3341 15.1795 64.3326C16.9678 64.1583 18.7365 63.8247 20.4638 63.3358C21.3614 63.0772 22.2339 62.74 23.0707 62.3282C23.268 62.2293 23.4576 62.1258 23.6441 62.0191H16.1587C16.0548 62.0191 15.9552 61.9784 15.8818 61.9059C15.8083 61.8335 15.7671 61.7352 15.767 61.6328V61.3283C15.7671 61.2259 15.8083 61.1276 15.8818 61.0552C15.9552 60.9827 16.0548 60.942 16.1587 60.942H21.2909V51.1813C21.2914 50.881 21.4125 50.5931 21.6278 50.3808C21.843 50.1684 22.1349 50.049 22.4393 50.0485H26.6144C26.5783 49.9465 26.5423 49.843 26.5032 49.7394C26.1115 48.6703 25.6472 47.6284 25.1136 46.6209C24.3825 45.2216 23.5124 43.8974 22.5161 42.6677C21.8223 41.8108 21.0435 41.0244 20.1912 40.3203C18.6199 39.0407 16.9091 38.2495 15.1733 38.2495C8.77205 38.2494 4.46222 49.0131 4.46222 55.3276Z" fill="#2F2E41"/>
<path d="M14.9843 31.7718L14.9762 31.4824C15.5221 31.4674 16.0033 31.4336 16.365 31.173C16.4675 31.0949 16.5518 30.9959 16.6121 30.8829C16.6724 30.7698 16.7072 30.6452 16.7144 30.5176C16.7207 30.4397 16.7088 30.3613 16.6794 30.2886C16.6501 30.216 16.6042 30.151 16.5452 30.0987C16.3052 29.8987 15.9189 29.9634 15.6373 30.0908L15.3945 30.2006L15.8601 26.8442L16.1508 26.8835L15.7548 29.7386C16.1374 29.6276 16.4919 29.6754 16.7346 29.8776C16.8279 29.9579 16.901 30.0584 16.9484 30.1712C16.9957 30.2839 17.016 30.406 17.0076 30.5278C16.999 30.6992 16.9526 30.8667 16.8714 31.0185C16.7903 31.1704 16.6766 31.3029 16.5381 31.4068C16.0734 31.7417 15.4695 31.7584 14.9843 31.7718Z" fill="#2F2E41"/>
<path d="M19.169 27.1297H17.5886V27.4192H19.169V27.1297Z" fill="#2F2E41"/>
<path d="M14.1805 27.1297H12.6001V27.4192H14.1805V27.1297Z" fill="#2F2E41"/>
<path d="M8.8825 26.7727C9.49319 25.8659 10.5678 25.4815 11.6274 25.388C12.8201 25.2828 13.9725 25.5096 15.137 25.7301C16.4186 25.9726 17.7749 26.1996 19.0663 25.8929C19.6375 25.7626 20.1713 25.506 20.6274 25.1425C21.0836 24.779 21.4501 24.3182 21.6993 23.7946C22.1721 22.7732 22.274 21.6224 21.9878 20.5356C21.6852 19.3797 20.9341 18.3627 20.0235 17.5945C18.1651 16.0267 15.6501 15.3221 13.2312 15.3884C10.8214 15.4498 8.4923 16.2576 6.57389 17.6975C4.65228 19.1894 3.30006 21.2797 2.73794 23.6273C2.15015 25.9557 2.34163 28.4091 3.28379 30.6213C3.81312 31.8326 4.57868 32.9246 5.16942 34.1054C5.71943 35.2048 6.14302 36.483 5.8008 37.7093C5.5005 38.7853 4.61886 39.7413 3.51205 40.0334C3.00848 40.1638 2.47562 40.1293 1.99362 39.9352C1.51163 39.7411 1.10655 39.3978 0.83933 38.9571C0.286036 38.0965 0.272798 36.9692 1.10354 36.2743C1.31299 36.0962 1.55698 35.962 1.82066 35.8798C2.08435 35.7977 2.36222 35.7693 2.63738 35.7963C2.91255 35.8234 3.17925 35.9054 3.42128 36.0374C3.6633 36.1693 3.8756 36.3485 4.04524 36.5639C4.38227 36.9957 4.53313 37.5412 4.4651 38.082C4.42418 38.3553 4.84824 38.4733 4.88954 38.1974C4.98867 37.6255 4.87874 37.0374 4.57933 36.5379C4.27992 36.0385 3.81048 35.6601 3.25465 35.4702C2.69883 35.2803 2.09271 35.2913 1.54429 35.5011C0.995881 35.7109 0.540794 36.106 0.260112 36.6159C-0.24087 37.5451 0.0294402 38.6658 0.665386 39.46C0.9935 39.883 1.43822 40.2039 1.94635 40.3841C2.45448 40.5644 3.00449 40.5964 3.53058 40.4763C4.68818 40.2126 5.63516 39.305 6.08049 38.2385C6.57628 37.0512 6.34913 35.7262 5.86581 34.5741C5.34335 33.3286 4.56752 32.2116 3.95398 31.0114C3.39844 29.9269 3.04492 28.7526 2.91027 27.5448C2.64078 25.1192 3.19886 22.6742 4.49621 20.5966C5.81855 18.5513 7.8369 17.0382 10.1887 16.329C12.5076 15.6109 15.0652 15.6329 17.3357 16.5154C19.5723 17.3847 21.7319 19.2791 21.706 21.8234C21.6949 22.9103 21.2859 24.0187 20.442 24.7436C19.4334 25.6099 18.0291 25.684 16.7612 25.5488C15.4854 25.4127 14.2464 25.0451 12.965 24.9514C11.8504 24.8698 10.648 24.9546 9.65285 25.5008C9.18941 25.7558 8.79487 26.1168 8.50243 26.5536C8.34525 26.787 8.7263 27.0047 8.8825 26.7727V26.7727Z" fill="#2F2E41"/>
<path d="M10.1319 45.7307C10.1444 45.7588 10.1585 45.7861 10.1741 45.8126C10.1899 45.8403 10.2072 45.8671 10.2259 45.893L13.6599 50.7687L13.9262 51.1473L16.7274 55.1221L19.4298 58.9593L20.5233 60.514C20.5527 60.5563 20.5857 60.5961 20.622 60.633C20.7911 60.8085 21.0185 60.9181 21.2628 60.942H21.2909V54.3107L20.9776 53.8657L17.4637 48.8771L13.6897 43.5193C13.5343 43.2989 13.2966 43.1483 13.0288 43.1005C12.7609 43.0527 12.4848 43.1116 12.2609 43.2643L11.1032 44.0571L10.4812 44.4836C10.2846 44.6186 10.142 44.8171 10.0782 45.0449C10.0144 45.2727 10.0334 45.5153 10.1319 45.7307Z" fill="#FF6D70"/>
<path d="M9.59459 45.6117L9.74965 45.9192L9.75126 45.9208L9.79356 46.0027L12.3111 50.9325C12.453 51.1617 12.6812 51.3262 12.9457 51.39C13.2103 51.4537 13.4896 51.4114 13.7227 51.2725L13.8856 51.172L13.9263 51.1473L17.1724 49.1383C17.2882 49.0691 17.3891 48.9779 17.469 48.8701C17.549 48.7622 17.6065 48.6398 17.6382 48.51C17.67 48.3801 17.6753 48.2453 17.654 48.1133C17.6326 47.9814 17.585 47.8549 17.5139 47.7413L13.9483 42.9722C13.5988 42.5048 13.0968 42.1704 12.5267 42.0252C11.9567 41.88 11.3533 41.9328 10.8181 42.1748C10.6974 42.2285 10.5811 42.2915 10.4703 42.3633C9.94624 42.7049 9.56754 43.2244 9.40611 43.8232C9.24468 44.422 9.31175 45.0584 9.59459 45.6117Z" fill="#2F2E41"/>
<path d="M28.0823 62.0192V73.6544C28.0827 73.9228 28.1909 74.18 28.3833 74.3698C28.5756 74.5595 28.8364 74.6663 29.1085 74.6667H31.2751C31.5471 74.6663 31.8079 74.5595 32.0003 74.3697C32.1926 74.18 32.3008 73.9228 32.3012 73.6544V62.0192H28.0823Z" fill="#FF6D70"/>
<path d="M15.4538 61.3283V61.6328C15.454 61.7937 15.5106 61.9495 15.6139 62.074C15.7173 62.1985 15.8611 62.2839 16.0209 62.3158C16.0428 62.3189 16.0648 62.3236 16.0867 62.3251C16.1102 62.3267 16.1337 62.3282 16.1588 62.3282H40.3099C40.6977 62.3281 41.0696 62.1762 41.3439 61.9059C41.6183 61.6356 41.7726 61.2689 41.7731 60.8864V51.1813C41.7726 50.7988 41.6183 50.4321 41.3439 50.1618C41.0696 49.8914 40.6977 49.7395 40.3099 49.7394H22.4394C22.0518 49.7399 21.6803 49.8919 21.4063 50.1622C21.1322 50.4325 20.9781 50.799 20.9777 51.1813V60.6329H16.1588C15.9718 60.6329 15.7925 60.7062 15.6603 60.8366C15.5281 60.967 15.4538 61.1439 15.4538 61.3283Z" fill="white"/>
<path d="M15.4538 61.3283V61.6328C15.454 61.7937 15.5106 61.9495 15.6139 62.074C15.7173 62.1985 15.8611 62.2839 16.0209 62.3158C16.0428 62.3189 16.0648 62.3236 16.0867 62.3251C16.1102 62.3267 16.1337 62.3282 16.1588 62.3282H40.3099C40.6977 62.3281 41.0696 62.1762 41.3439 61.9059C41.6183 61.6356 41.7726 61.2689 41.7731 60.8864V51.1813C41.7726 50.7988 41.6183 50.4321 41.3439 50.1618C41.0696 49.8914 40.6977 49.7395 40.3099 49.7394H22.4394C22.0518 49.7399 21.6803 49.8919 21.4063 50.1622C21.1322 50.4325 20.9781 50.799 20.9777 51.1813V60.6329H16.1588C15.9718 60.6329 15.7925 60.7062 15.6603 60.8366C15.5281 60.967 15.4538 61.1439 15.4538 61.3283ZM15.7671 61.6328V61.3283C15.7672 61.2259 15.8084 61.1276 15.8819 61.0552C15.9553 60.9827 16.0549 60.942 16.1588 60.942H21.291V51.1813C21.2915 50.881 21.4126 50.5931 21.6279 50.3808C21.8431 50.1684 22.1349 50.049 22.4394 50.0485H40.3099C40.6146 50.0486 40.9068 50.168 41.1223 50.3803C41.3379 50.5927 41.4593 50.8808 41.4598 51.1813V60.8864C41.4593 61.1869 41.3379 61.4749 41.1223 61.6873C40.9068 61.8997 40.6146 62.019 40.3099 62.0191H16.1588C16.0549 62.0191 15.9553 61.9784 15.8819 61.9059C15.8084 61.8335 15.7672 61.7352 15.7671 61.6328V61.6328Z" fill="#3F3D56"/>
<path d="M31.3752 57.2224C32.0405 57.2224 32.5799 56.6904 32.5799 56.034C32.5799 55.3777 32.0405 54.8456 31.3752 54.8456C30.7098 54.8456 30.1704 55.3777 30.1704 56.034C30.1704 56.6904 30.7098 57.2224 31.3752 57.2224Z" fill="#FF6D70"/>
<path d="M21.2957 60.7968H20.9824V62.1876H21.2957V60.7968Z" fill="#3F3D56"/>
</g>
<defs>
<clipPath id="clip0">
<rect width="80" height="80" fill="white"/>
</clipPath>
</defs>
</svg>
